<?xml version="1.0" encoding="utf-8"?>
<!-- Svg Vector Icons : http://www.onlinewebfonts.com/icon -->
<!DOCTYPE svg PUBLIC "-//W3C//DTD SVG 1.1//EN" "http://www.w3.org/Graphics/SVG/1.1/DTD/svg11.dtd">
<svg version="1.1" xmlns="http://www.w3.org/2000/svg" xmlns:xlink="http://www.w3.org/1999/xlink" x="0px" y="0px" viewBox="0 0 1000 1000" enable-background="new 0 0 1000 1000" xml:space="preserve">
<metadata> Svg Vector Icons : http://www.onlinewebfonts.com/icon </metadata>
<g><g><path d="M745,438.8V255c0-135.1-109.9-245-245-245c-135.1,0-245,109.9-245,245v183.8c-67.7,0-122.5,54.9-122.5,122.5v306.3c0,67.7,54.8,122.5,122.5,122.5h490c67.6,0,122.5-54.8,122.5-122.5V561.2C867.5,493.6,812.6,438.8,745,438.8z M530.6,735.6v101.3c0,16.9-13.7,30.6-30.6,30.6s-30.6-13.7-30.6-30.6V735.6c-18-10.6-30.6-29.4-30.6-51.9c0-33.9,27.4-61.3,61.2-61.3c33.8,0,61.3,27.4,61.3,61.3C561.3,706.2,548.6,725,530.6,735.6z M622.5,438.8h-245V255c0-67.6,54.9-122.5,122.5-122.5c67.5,0,122.5,54.9,122.5,122.5V438.8L622.5,438.8z"/></g><g></g><g></g><g></g><g></g><g></g><g></g><g></g><g></g><g></g><g></g><g></g><g></g><g></g><g></g><g></g></g>
</svg>